<?xml version="1.0" encoding="utf-8"?>
<!-- Generator: Adobe Illustrator 25.2.1, SVG Export Plug-In . SVG Version: 6.00 Build 0)  -->
<svg version="1.1" id="Layer_1" xmlns="http://www.w3.org/2000/svg" xmlns:xlink="http://www.w3.org/1999/xlink" x="0px" y="0px"
	 viewBox="0 10 385 116.8" style="enable-background:new 0 10 385 116.8;" xml:space="preserve">
<style type="text/css">
	.st0{fill-rule:evenodd;clip-rule:evenodd;fill:#8AC340;}
	.st1{fill:#77787B;}
	.st2{fill-rule:evenodd;clip-rule:evenodd;fill:#77787B;}
</style>
<g id="XMLID_237_">
	<g id="XMLID_286_">
		<g id="XMLID_318_">
			<path id="XMLID_325_" class="st0" d="M110,38.6c0,14.7-11.9,26.7-26.4,26.7c-14.6,0-26.4-12-26.4-26.7s11.9-26.7,26.4-26.7
				C98.1,11.9,110,23.9,110,38.6z"/>
			<g id="XMLID_319_">
				<g>
					<path class="st0" d="M102.2,93.9C94.3,85.1,90.2,81.3,78,77c-26.3-9.3-28.8-23.8-32.2-31.3c-2.7-7-5.6-15.4-13.7-23.9
						C21.3,10.9,1.2,4.3,0.2,22.4L0,110.9c0.3,8.4,4.3,12.1,13.1,12.3h87.2C118.4,120.7,107,99.2,102.2,93.9z M33.5,116.6
						c-14.6,0-26.5-12-26.5-26.7s11.9-26.7,26.4-26.7s26.4,12,26.4,26.7S47.9,116.6,33.5,116.6z"/>
				</g>
			</g>
		</g>
		<g id="XMLID_287_">
			<path id="XMLID_316_" class="st1" d="M126,121.7v-15h-6.5v-2h15.7v2h-6.6v15H126z"/>
			<path id="XMLID_313_" class="st1" d="M146.4,117.8l2.5,0.3c-0.4,1.3-1.1,2.2-2.2,2.9c-1.1,0.7-2.4,1-4.1,1c-2.1,0-3.8-0.6-5-1.7
				s-1.8-2.7-1.8-4.7c0-2.1,0.6-3.7,1.9-4.8c1.2-1.1,2.9-1.7,4.8-1.7c1.9,0,3.5,0.6,4.7,1.7s1.8,2.7,1.8,4.7c0,0.1,0,0.3,0,0.6
				h-10.7c0.1,1.4,0.5,2.4,1.3,3.1s1.8,1.1,3,1.1c0.9,0,1.7-0.2,2.3-0.6C145.6,119.3,146.1,118.6,146.4,117.8z M138.4,114.4h8
				c-0.1-1-0.4-1.8-0.9-2.3c-0.8-0.8-1.8-1.2-3-1.2c-1.1,0-2.1,0.3-2.8,1C138.9,112.4,138.5,113.3,138.4,114.4z"/>
			<path id="XMLID_311_" class="st1" d="M163.4,117.2l2.4,0.3c-0.3,1.4-0.9,2.5-2,3.3s-2.4,1.2-4,1.2c-2,0-3.5-0.6-4.7-1.7
				s-1.8-2.7-1.8-4.7c0-1.3,0.3-2.5,0.8-3.5s1.3-1.7,2.3-2.2c1.1-0.5,2.2-0.7,3.4-0.7c1.6,0,2.8,0.3,3.8,1s1.6,1.6,1.9,2.9l-2.4,0.3
				c-0.2-0.8-0.6-1.5-1.2-1.9c-0.6-0.4-1.3-0.6-2.1-0.6c-1.2,0-2.2,0.4-3,1.1c-0.8,0.8-1.1,1.9-1.1,3.6s0.4,2.9,1.1,3.6
				c0.7,0.8,1.7,1.1,2.9,1.1c1,0,1.8-0.3,2.4-0.8C162.9,119,163.3,118.3,163.4,117.2z"/>
			<path id="XMLID_309_" class="st1" d="M170,121.7v-17h2.4v6.1c1.1-1.1,2.6-1.7,4.3-1.7c1.1,0,2,0.2,2.8,0.5
				c0.8,0.4,1.3,0.9,1.7,1.5c0.3,0.6,0.5,1.6,0.5,2.8v7.8h-2.4v-7.8c0-1-0.3-1.8-0.8-2.3s-1.3-0.7-2.2-0.7c-0.7,0-1.4,0.2-2,0.5
				s-1.1,0.8-1.4,1.3c-0.3,0.5-0.4,1.3-0.4,2.3v6.7C172.5,121.7,170,121.7,170,121.7z"/>
			<path id="XMLID_307_" class="st1" d="M187.5,121.7v-12.3h2.2v1.8c1.1-1.4,2.6-2,4.6-2c0.9,0,1.7,0.1,2.4,0.4s1.3,0.6,1.6,1.1
				c0.4,0.4,0.6,0.9,0.8,1.5c0.1,0.4,0.1,1.1,0.1,2v7.6h-2.4v-7.5c0-0.9-0.1-1.5-0.3-1.9s-0.5-0.8-1-1c-0.5-0.3-1-0.4-1.7-0.4
				c-1,0-1.9,0.3-2.7,0.8c-0.8,0.6-1.1,1.6-1.1,3.2v6.7C190,121.7,187.5,121.7,187.5,121.7z"/>
			<path id="XMLID_304_" class="st1" d="M204.1,115.6c0-2.3,0.7-4,2.2-5.1c1.2-0.9,2.7-1.4,4.5-1.4c2,0,3.6,0.6,4.8,1.7
				c1.3,1.1,1.9,2.6,1.9,4.6c0,1.6-0.3,2.8-0.8,3.7c-0.6,0.9-1.4,1.6-2.4,2.1c-1.1,0.5-2.2,0.8-3.5,0.8c-2,0-3.6-0.6-4.9-1.7
				C204.7,119.2,204.1,117.6,204.1,115.6z M206.6,115.6c0,1.6,0.4,2.8,1.2,3.5c0.8,0.8,1.8,1.2,3,1.2s2.2-0.4,3-1.2
				c0.8-0.8,1.2-2,1.2-3.6c0-1.5-0.4-2.7-1.2-3.5s-1.8-1.2-3-1.2s-2.2,0.4-3,1.2S206.6,114,206.6,115.6z"/>
			<path id="XMLID_302_" class="st1" d="M222.4,121.7v-17h2.4v17H222.4z"/>
			<path id="XMLID_299_" class="st1" d="M229.8,115.6c0-2.3,0.7-4,2.2-5.1c1.2-0.9,2.7-1.4,4.5-1.4c2,0,3.6,0.6,4.8,1.7
				c1.3,1.1,1.9,2.6,1.9,4.6c0,1.6-0.3,2.8-0.8,3.7c-0.6,0.9-1.4,1.6-2.4,2.1c-1.1,0.5-2.2,0.8-3.5,0.8c-2,0-3.6-0.6-4.9-1.7
				C230.4,119.2,229.8,117.6,229.8,115.6z M232.3,115.6c0,1.6,0.4,2.8,1.2,3.5c0.8,0.8,1.8,1.2,3,1.2s2.2-0.4,3-1.2
				c0.8-0.8,1.2-2,1.2-3.6c0-1.5-0.4-2.7-1.2-3.5s-1.8-1.2-3-1.2s-2.2,0.4-3,1.2S232.3,114,232.3,115.6z"/>
			<path id="XMLID_296_" class="st1" d="M247.7,122.7l2.4,0.3c0.1,0.6,0.4,1.1,0.8,1.4c0.6,0.4,1.4,0.6,2.5,0.6s2-0.2,2.6-0.6
				s1-0.9,1.2-1.6c0.1-0.4,0.2-1.3,0.2-2.7c-1.1,1.1-2.4,1.6-4,1.6c-2,0-3.5-0.6-4.6-1.8c-1.1-1.2-1.6-2.7-1.6-4.4
				c0-1.2,0.2-2.3,0.7-3.3s1.2-1.8,2.2-2.3c0.9-0.5,2-0.8,3.3-0.8c1.7,0,3.1,0.6,4.2,1.8v-1.5h2.2v10.7c0,1.9-0.2,3.3-0.7,4.1
				c-0.5,0.8-1.2,1.4-2.2,1.9s-2.2,0.7-3.6,0.7c-1.7,0-3.1-0.3-4.2-1C248.2,125.1,247.7,124.1,247.7,122.7z M249.7,115.3
				c0,1.6,0.4,2.8,1.1,3.5c0.7,0.7,1.7,1.1,2.8,1.1s2.1-0.4,2.8-1.1c0.8-0.7,1.1-1.9,1.1-3.5c0-1.5-0.4-2.6-1.2-3.4
				c-0.8-0.8-1.7-1.1-2.8-1.1s-2,0.4-2.8,1.1C250.1,112.7,249.7,113.9,249.7,115.3z"/>
			<path id="XMLID_293_" class="st1" d="M265.6,107.1v-2.4h2.4v2.4H265.6z M265.6,121.7v-12.3h2.4v12.3H265.6z"/>
			<path id="XMLID_290_" class="st1" d="M283.7,117.8l2.5,0.3c-0.4,1.3-1.1,2.2-2.2,2.9c-1.1,0.7-2.4,1-4.1,1c-2.1,0-3.8-0.6-5-1.7
				s-1.8-2.7-1.8-4.7c0-2.1,0.6-3.7,1.9-4.8c1.2-1.1,2.9-1.7,4.8-1.7s3.5,0.6,4.7,1.7s1.8,2.7,1.8,4.7c0,0.1,0,0.3,0,0.6h-10.7
				c0.1,1.4,0.5,2.4,1.3,3.1s1.8,1.1,3,1.1c0.9,0,1.7-0.2,2.3-0.6C282.8,119.3,283.3,118.6,283.7,117.8z M275.7,114.4h8
				c-0.1-1-0.4-1.8-0.9-2.3c-0.8-0.8-1.8-1.2-3-1.2c-1.1,0-2.1,0.3-2.8,1C276.2,112.4,275.8,113.3,275.7,114.4z"/>
			<path id="XMLID_288_" class="st1" d="M290.4,118l2.4-0.3c0.1,0.8,0.5,1.5,1.1,1.9s1.5,0.7,2.6,0.7s1.9-0.2,2.5-0.6
				c0.5-0.4,0.8-0.8,0.8-1.4c0-0.5-0.2-0.8-0.7-1.1c-0.3-0.2-1.2-0.4-2.5-0.7c-1.8-0.4-3-0.7-3.7-1s-1.2-0.7-1.6-1.2
				s-0.5-1.1-0.5-1.7c0-0.5,0.1-1.1,0.4-1.5c0.3-0.5,0.7-0.9,1.2-1.2c0.4-0.2,0.9-0.4,1.5-0.6c0.7-0.2,1.4-0.2,2.1-0.2
				c1.1,0,2.1,0.1,3,0.4s1.5,0.7,1.9,1.1c0.4,0.5,0.7,1.1,0.8,1.9l-2.4,0.3c-0.1-0.6-0.4-1.1-0.9-1.5s-1.3-0.5-2.2-0.5
				c-1.1,0-1.9,0.2-2.4,0.5s-0.7,0.7-0.7,1.1c0,0.3,0.1,0.5,0.3,0.7c0.2,0.2,0.5,0.4,0.9,0.6c0.2,0.1,1,0.3,2.1,0.5
				c1.7,0.4,2.9,0.7,3.6,1s1.2,0.6,1.6,1.1s0.6,1.1,0.6,1.8c0,0.7-0.2,1.4-0.7,2s-1.2,1.1-2,1.4c-0.9,0.3-1.9,0.5-3,0.5
				c-1.9,0-3.3-0.3-4.3-1C291.3,120.3,290.6,119.4,290.4,118z"/>
		</g>
	</g>
	<g id="XMLID_238_">
		<path id="XMLID_283_" class="st2" d="M140.9,51.8l-14.7-2.7c1.7-6.1,4.5-10.5,8.6-13.5c4.1-2.9,10.1-4.4,18.2-4.4
			c7.3,0,12.7,0.9,16.3,2.6s6.1,4,7.5,6.6c1.5,2.7,2.2,7.6,2.2,14.8l-0.3,19.3c0,5.5,0.3,9.5,0.8,12.1s1.5,5.4,3,8.4h-16.1
			c-0.4-1.1-1-2.7-1.6-4.8c-0.3-1-0.5-1.6-0.6-1.9c-2.8,2.8-5.8,4.8-9,6.2c-3.2,1.4-6.6,2.1-10.2,2.1c-6.4,0-11.4-1.7-15-5.2
			c-3.7-3.5-5.5-7.9-5.5-13.2c0-3.5,0.8-6.7,2.5-9.4c1.7-2.8,4-4.9,7-6.4s7.3-2.8,13-3.9c7.6-1.5,12.9-2.8,15.9-4.1v-1.7
			c0-3.2-0.8-5.5-2.3-6.9c-1.6-1.4-4.5-2.1-8.8-2.1c-2.9,0-5.2,0.6-6.8,1.8C143.2,46.8,141.9,48.9,140.9,51.8z M162.8,65.2
			c-2.1,0.7-5.4,1.6-9.9,2.5c-4.5,1-7.5,1.9-8.9,2.9c-2.1,1.5-3.2,3.5-3.2,5.8s0.9,4.3,2.6,6c1.7,1.7,3.9,2.5,6.5,2.5
			c2.9,0,5.8-1,8.4-2.9c2-1.5,3.3-3.3,3.9-5.5c0.4-1.4,0.6-4.1,0.6-8.1L162.8,65.2L162.8,65.2z"/>
		<path id="XMLID_275_" class="st2" d="M229.3,32.8V46h-11.2v25.2c0,5.1,0.1,8.1,0.3,8.9s0.7,1.5,1.4,2.1s1.7,0.8,2.7,0.8
			c1.5,0,3.7-0.5,6.5-1.6l1.3,12.7c-3.8,1.6-8,2.4-12.8,2.4c-2.9,0-5.6-0.5-7.9-1.5c-2.3-1-4.1-2.3-5.2-3.9
			c-1.1-1.6-1.9-3.7-2.3-6.4c-0.3-1.9-0.5-5.8-0.5-11.6V46h-7.4V32.8h7.4V20.5l16.3-9.6v21.9C217.9,32.8,229.3,32.8,229.3,32.8z"/>
		<path id="XMLID_260_" class="st0" d="M242.6,63.1c0-5.5,1.3-10.8,4-16c2.7-5.1,6.5-9.1,11.4-11.8s10.4-4.1,16.4-4.1
			c9.3,0,17,3.1,23,9.2s9,13.9,9,23.3c0,9.5-3,17.3-9,23.5s-13.6,9.3-22.8,9.3c-5.7,0-11.1-1.3-16.2-3.9s-9-6.4-11.7-11.4
			C244,76.4,242.6,70.3,242.6,63.1z M259.3,64c0,6.2,1.5,11,4.4,14.3c2.9,3.3,6.5,5,10.8,5s7.8-1.7,10.7-5c2.9-3.3,4.3-8.1,4.3-14.4
			c0-6.1-1.4-10.9-4.3-14.2s-6.5-5-10.7-5c-4.3,0-7.9,1.7-10.8,5C260.8,53,259.3,57.7,259.3,64z"/>
		<path id="XMLID_239_" class="st2" d="M324.8,32.8H340v9.1c2-3.1,4.7-5.7,8-7.7c3.4-2,7.1-3,11.2-3c7.2,0,13.3,2.8,18.3,8.5
			s7.5,13.6,7.5,23.8c0,10.4-2.5,18.6-7.6,24.4c-5,5.8-11.2,8.7-18.3,8.7c-3.4,0-6.5-0.7-9.3-2c-2.8-1.4-5.7-3.7-8.8-7v34.6h-16.3
			L324.8,32.8L324.8,32.8z M340.8,62.9c0,7.1,1.4,12.3,4.1,15.6c2.8,3.4,6.1,5.1,10.1,5.1c3.8,0,7-1.5,9.5-4.6s3.8-8.2,3.8-15.2
			c0-6.6-1.3-11.5-3.9-14.7s-5.8-4.8-9.7-4.8c-4,0-7.3,1.6-10,4.7C342.1,52.1,340.8,56.8,340.8,62.9z"/>
	</g>
</g>
</svg>
